<?xml version="1.0" encoding="utf-8"?>
<!-- Generator: Adobe Illustrator 19.0.0, SVG Export Plug-In . SVG Version: 6.00 Build 0)  -->
<svg version="1.1" id="Layer_1" xmlns="http://www.w3.org/2000/svg" xmlns:xlink="http://www.w3.org/1999/xlink" x="0px" y="0px"
	 viewBox="0 0 16 16" enable-background="new 0 0 16 16" xml:space="preserve">
<g id="XMLID_20_">
	<path id="XMLID_79_" fill="#393939" d="M10.912,3v1.623L9.403,6.34L8.808,7.016l0.611,0.662L11,9.391V11H5V9.377L6.509,7.66L7.09,7
		l-0.58-0.66L5,4.623V3H10.912 M11.912,2H4v3l1.758,2L4,9v3h8V9l-1.846-2l1.758-2V2L11.912,2z M16,13H0v1h16V13L16,13z"/>
</g>
<path id="XMLID_25_" fill="#FAA519" d="M5.45,11l2.2-4l-1.2-2h3l-1,2l2.1,4H5.45z"/>
<g id="XMLID_26_">
</g>
<g id="XMLID_28_">
</g>
<g id="XMLID_29_">
</g>
<g id="XMLID_30_">
</g>
<g id="XMLID_31_">
</g>
<g id="XMLID_32_">
</g>
</svg>
